<svg xmlns="http://www.w3.org/2000/svg" viewBox="0 0 96 96" role="img" aria-label="Chinese lantern">
  <defs>
    <linearGradient id="lanternBody" x1="24" x2="72" y1="18" y2="72" gradientUnits="userSpaceOnUse">
      <stop offset="0" stop-color="#ffcf70"/>
      <stop offset=".28" stop-color="#e63b26"/>
      <stop offset="1" stop-color="#8f1212"/>
    </linearGradient>
  </defs>
  <path fill="none" stroke="#7a1010" stroke-linecap="round" stroke-width="6" d="M48 5v12M48 78v13"/>
  <path fill="#f5b75c" d="M31 14h34v10H31zM31 72h34v10H31z"/>
  <path fill="url(#lanternBody)" stroke="#7a1010" stroke-width="4" d="M25 28c0-10 46-10 46 0v30c0 18-46 18-46 0z"/>
  <path fill="none" stroke="#ffd991" stroke-linecap="round" stroke-width="4" d="M38 25c-7 13-7 35 0 48M48 24v50M58 25c7 13 7 35 0 48"/>
  <path fill="none" stroke="#f3c15d" stroke-linecap="round" stroke-width="4" d="M37 88h22M41 94h14"/>
</svg>
